<svg xmlns="http://www.w3.org/2000/svg" width="1024" height="1024" viewBox="0 0 1024 1024">
<g>
<path d="M 661.26 397.00 L 655.43 404.50 L 633.00 405.07 L 633.00 379.00 L 642.95 379.00 L 665.14 349.25 C677.35,332.89 687.74,318.97 688.23,318.32 C688.84,317.52 681.48,307.98 665.31,288.59 L 641.50 260.04 L 604.30 260.02 L 567.09 260.00 L 566.80 266.75 L 566.50 273.50 L 541.50 273.50 L 540.96 233.00 L 652.97 233.00 L 675.48 261.25 C714.91,310.73 721.00,318.46 720.99,318.99 C720.99,319.27 711.27,332.10 699.40,347.50 C687.52,362.90 675.40,378.65 672.45,382.50 C669.50,386.35 664.46,392.88 661.26,397.00 ZM 514.00 364.00 L 514.00 405.00 L 461.75 404.83 C433.01,404.73 407.63,404.48 405.34,404.27 C401.31,403.91 400.82,403.44 389.89,389.70 C379.12,376.16 362.92,355.76 343.45,331.23 C338.53,325.03 334.38,319.60 334.23,319.17 C334.08,318.73 340.72,309.63 348.98,298.94 C357.25,288.25 366.26,276.58 369.01,273.00 C371.76,269.42 379.25,259.75 385.65,251.50 C392.05,243.25 397.79,235.71 398.39,234.75 C399.32,233.25 401.10,233.00 410.74,233.00 L 422.00 233.00 L 422.00 259.00 L 417.06 259.00 C416.53,259.00 416.08,258.97 415.68,258.94 C415.18,258.90 414.75,258.87 414.33,258.91 C411.36,259.20 408.77,263.18 385.05,294.97 C368.63,316.99 366.22,320.68 367.28,322.17 C367.95,323.12 378.62,336.05 391.00,350.91 L 413.50 377.93 L 450.75 377.96 L 488.00 378.00 L 488.00 364.00 ZM 576.00 380.00 L 576.00 405.00 L 541.00 405.00 L 541.00 358.11 C541.00,316.27 541.17,311.15 542.58,310.61 C544.66,309.81 560.87,309.82 564.88,310.62 L 568.00 311.25 L 568.00 380.00 ZM 514.00 233.00 L 514.00 327.00 L 487.00 327.00 L 487.00 258.00 L 479.00 258.00 L 479.00 233.00 Z" fill="rgb(31,106,69)"/>
<path d="M 481.00 279.10 L 481.00 304.00 L 441.00 304.00 L 441.10 250.25 C441.15,220.69 441.51,195.38 441.88,194.00 C442.55,191.53 451.83,183.83 504.86,141.75 C516.47,132.54 526.47,125.00 527.08,125.00 C527.69,125.00 543.79,137.00 562.85,151.68 C581.91,166.35 601.00,181.04 605.28,184.32 L 613.06 190.29 L 612.78 200.89 L 612.50 211.50 L 587.50 211.50 L 587.00 206.50 L 586.50 201.50 L 572.49 191.00 C535.17,163.04 526.44,156.67 525.45,156.67 C524.86,156.67 511.69,167.20 496.20,180.08 L 468.03 203.50 L 468.26 241.00 L 468.50 278.50 L 474.75 278.80 ZM 534.41 510.11 C531.61,512.25 528.91,513.98 528.41,513.96 C527.91,513.94 517.60,506.05 505.50,496.42 C493.40,486.79 478.55,475.02 472.50,470.26 C466.45,465.50 457.34,458.28 452.25,454.22 L 443.00 446.83 L 443.00 427.00 L 467.89 427.00 L 468.20 431.38 L 468.50 435.76 L 497.51 458.67 C513.46,471.27 527.07,481.92 527.74,482.34 C528.52,482.82 536.05,477.46 548.23,467.76 C558.83,459.33 572.56,448.43 578.75,443.55 L 590.00 434.66 L 590.00 359.00 L 575.14 359.00 L 574.46 353.49 C574.08,350.47 574.08,345.07 574.46,341.49 L 575.16 335.00 L 615.00 335.00 L 615.00 447.71 L 586.86 469.61 C561.79,489.12 552.65,496.18 534.41,510.11 ZM 465.56 362.42 L 465.50 366.34 L 453.67 366.42 C447.17,366.46 441.65,366.31 441.42,366.08 C441.19,365.85 441.00,358.09 441.00,348.83 L 441.00 332.00 L 535.00 332.00 L 535.00 357.97 L 500.31 358.24 L 465.63 358.50 ZM 612.77 287.87 L 612.50 304.50 L 566.43 304.76 C541.09,304.90 520.05,304.72 519.68,304.34 C519.30,303.97 519.00,298.12 519.00,291.33 L 519.00 279.00 L 588.00 279.00 L 588.00 271.13 L 598.75 270.81 C604.66,270.64 610.30,270.67 611.27,270.87 C612.90,271.21 613.02,272.63 612.77,287.87 Z" fill="rgb(1,52,126)"/>
<path d="M 661.05 599.00 L 660.50 633.50 L 654.46 633.79 C651.14,633.95 648.10,633.77 647.71,633.38 C647.32,632.99 647.00,613.39 647.00,589.83 L 647.00 547.00 L 661.25 547.02 C674.14,547.03 675.88,547.25 679.44,549.27 C685.46,552.67 687.35,556.79 687.82,567.46 C688.28,578.07 686.97,583.88 683.15,588.16 L 680.40 591.24 L 683.12 593.96 C686.92,597.77 687.84,602.35 688.15,619.00 L 688.41 633.50 L 682.48 633.81 C674.25,634.23 674.00,633.75 674.00,617.03 C674.00,600.40 673.38,599.00 665.97,599.00 ZM 457.00 603.50 L 456.50 633.50 L 450.75 633.80 L 445.00 634.10 L 445.00 547.00 L 461.91 547.00 L 462.77 550.25 C463.25,552.04 466.07,562.61 469.04,573.75 C472.00,584.89 474.78,594.00 475.22,594.00 C475.65,594.00 476.00,583.42 476.00,570.50 L 476.00 547.00 L 488.02 547.00 L 487.50 633.50 L 474.11 634.09 L 472.16 627.29 C471.09,623.56 467.63,610.83 464.46,599.00 C461.29,587.17 458.43,576.60 458.10,575.50 C457.77,574.40 457.27,587.00 457.00,603.50 ZM 508.34 630.75 C507.78,634.00 507.77,634.00 501.75,634.00 L 495.72 634.00 L 496.40 628.25 C496.77,625.09 499.32,608.55 502.08,591.50 C504.83,574.45 507.55,557.46 508.13,553.75 L 509.18 547.00 L 519.59 547.00 C529.72,547.00 530.00,547.06 530.00,549.25 C530.01,550.49 531.14,558.25 532.51,566.50 C539.58,608.80 543.00,632.40 542.18,633.22 C541.69,633.71 538.64,633.97 535.40,633.80 L 529.50 633.50 L 528.79 629.50 C528.39,627.30 527.81,623.81 527.49,621.75 L 526.91 618.00 L 510.23 618.00 L 509.56 622.75 C509.20,625.36 508.65,628.96 508.34,630.75 ZM 423.62 633.09 C414.01,637.45 401.66,633.99 396.84,625.59 C394.56,621.60 394.49,620.80 394.18,592.50 C393.84,562.10 394.23,558.30 398.26,552.63 C402.95,546.04 416.53,543.84 425.09,548.29 C431.09,551.40 433.83,556.99 434.67,567.82 L 435.30 576.00 L 422.23 576.00 L 421.83 569.00 C421.37,560.88 419.79,558.60 414.61,558.60 C414.50,558.60 414.39,558.60 414.28,558.60 C412.64,558.60 411.43,558.60 410.53,559.13 C408.00,560.63 408.00,566.41 408.00,588.52 L 408.00 590.07 C408.00,618.71 408.01,618.90 410.22,620.44 C412.98,622.38 417.01,622.44 419.53,620.60 C421.15,619.41 421.50,617.61 421.83,608.67 L 422.22 598.14 L 418.86 597.82 L 415.50 597.50 L 415.50 585.50 L 425.25 585.21 L 435.00 584.93 L 434.98 600.21 C434.96,608.62 434.49,617.52 433.92,619.98 C432.56,625.87 428.71,630.78 423.62,633.09 ZM 624.75 633.46 C620.71,635.15 613.31,635.34 608.31,633.90 C603.73,632.57 598.41,627.15 597.12,622.49 C596.40,619.92 596.01,605.81 596.01,582.75 L 596.00 547.00 L 608.93 547.00 L 609.21 582.40 C609.48,615.58 609.62,617.92 611.40,619.90 C613.80,622.54 619.07,622.69 621.35,620.17 C622.80,618.56 623.00,614.99 623.00,590.32 C623.00,574.91 623.29,558.86 623.65,554.65 L 624.29 547.00 L 636.00 547.00 L 635.98 583.75 C635.96,617.27 635.79,620.85 634.12,624.50 C631.93,629.26 629.70,631.39 624.75,633.46 ZM 352.51 632.00 C348.59,634.41 339.62,635.46 334.36,634.11 C329.73,632.91 325.20,629.32 323.10,625.17 C321.30,621.60 319.84,611.77 320.73,609.25 C321.01,608.45 323.22,608.00 326.94,608.00 L 332.72 608.00 L 333.33 613.14 C334.07,619.36 336.21,622.00 340.50,622.00 C345.01,622.00 347.00,619.38 347.00,613.42 C346.99,607.20 344.17,602.77 333.81,592.70 C324.82,583.97 321.92,578.82 321.24,570.40 C320.30,558.74 323.98,550.58 331.61,547.39 C335.86,545.61 346.10,545.60 350.33,547.36 C356.91,550.11 361.49,558.61 360.81,566.82 L 360.50 570.50 L 348.50 570.50 L 347.97 566.00 C347.25,559.81 346.52,559.00 341.64,559.00 C336.19,559.00 335.00,560.30 335.00,566.25 C335.00,573.02 336.86,576.05 348.06,587.62 C356.64,596.47 358.08,598.47 359.56,603.55 C362.87,614.94 359.75,627.52 352.51,632.00 ZM 735.36 627.25 L 735.22 633.50 L 717.30 633.77 C707.44,633.92 699.07,633.73 698.69,633.36 C698.31,632.98 698.00,613.39 698.00,589.83 L 698.00 547.00 L 716.75 547.00 L 735.50 547.00 L 735.61 553.00 L 735.72 559.00 L 711.94 559.00 L 712.22 571.25 L 712.50 583.50 L 721.80 583.79 L 731.10 584.08 L 730.80 589.79 L 730.50 595.50 L 712.00 596.08 L 712.00 621.00 L 735.50 621.00 ZM 629.00 825.07 L 629.00 831.00 L 616.67 831.00 C609.88,831.00 604.03,830.70 603.67,830.33 C603.30,829.97 603.00,820.29 603.00,808.83 L 603.00 787.99 L 710.00 788.04 L 710.00 790.49 C710.00,792.90 709.87,792.93 699.75,793.22 L 689.50 793.50 L 689.50 809.50 L 698.25 809.79 C706.76,810.07 707.00,810.14 707.00,812.50 C707.00,814.86 706.76,814.93 698.25,815.21 L 689.50 815.50 L 689.50 824.50 L 699.81 824.79 L 710.13 825.07 L 709.81 827.79 L 709.50 830.50 L 696.75 830.78 L 684.00 831.06 L 684.00 793.00 L 672.00 793.00 L 672.00 831.00 L 667.00 831.00 L 667.00 793.00 L 647.04 793.00 L 646.77 811.75 L 646.50 830.50 L 641.50 830.50 L 641.23 811.84 L 640.96 793.18 L 635.23 792.84 C632.08,792.65 624.78,792.72 619.00,793.00 L 608.50 793.50 L 608.50 809.50 L 617.25 809.79 C625.76,810.07 626.00,810.14 626.00,812.50 C626.00,814.86 625.76,814.93 617.25,815.21 L 608.50 815.50 L 608.50 824.50 ZM 574.76 596.25 L 574.50 633.50 L 568.46 633.79 C565.14,633.95 562.10,633.77 561.71,633.38 C561.32,632.99 561.00,616.09 561.00,595.83 L 561.00 559.00 L 547.00 559.00 L 547.00 547.00 L 589.00 547.00 L 589.00 559.00 L 575.02 559.00 ZM 503.27 829.62 C498.27,831.12 497.92,831.14 493.50,830.06 C479.85,826.74 472.33,812.50 477.90,800.50 C480.07,795.82 485.31,790.57 489.32,789.06 C493.98,787.30 503.62,787.76 507.91,789.96 C518.15,795.18 522.00,808.14 516.53,818.95 C513.70,824.53 509.83,827.64 503.27,829.62 ZM 210.09 827.92 C202.29,831.85 193.74,830.96 186.55,825.47 C181.49,821.61 179.05,816.08 179.04,808.50 C179.03,797.44 186.57,789.11 197.42,788.22 C205.80,787.52 209.65,788.64 214.60,793.20 C225.61,803.35 223.28,821.30 210.09,827.92 ZM 353.50 828.25 C342.79,833.54 328.36,827.85 324.33,816.75 C319.50,803.42 327.93,789.33 341.42,788.22 C349.77,787.52 353.65,788.64 358.54,793.14 C364.20,798.36 366.49,804.23 365.58,811.14 C364.50,819.27 360.65,824.73 353.50,828.25 ZM 384.02 547.00 L 383.50 633.50 L 377.46 633.79 C374.14,633.95 371.10,633.77 370.71,633.38 C370.32,632.99 370.00,613.39 370.00,589.83 L 370.00 547.00 ZM 591.45 828.03 C588.69,829.74 585.79,830.38 579.06,830.76 C573.78,831.06 570.04,830.87 569.67,830.27 C569.33,829.73 569.12,819.99 569.19,808.64 L 569.33 788.00 L 578.09 788.00 C587.56,788.00 589.42,788.84 590.63,793.65 C591.05,795.32 590.71,796.71 589.65,797.78 C588.18,799.25 588.35,799.55 591.77,801.46 C601.39,806.81 601.21,822.00 591.45,828.03 ZM 719.80 825.75 C719.55,829.65 719.13,830.55 717.46,830.79 C716.34,830.95 715.10,830.77 714.71,830.38 C714.32,829.99 714.00,820.29 714.00,808.83 L 714.00 788.00 L 723.75 788.00 C735.37,788.01 738.60,789.47 741.86,796.22 C745.42,803.57 744.44,809.85 738.81,815.68 L 735.73 818.87 L 739.37 823.82 C743.66,829.66 743.87,831.00 740.50,831.00 C738.64,831.00 737.07,829.71 734.40,826.00 C730.86,821.07 730.74,821.00 725.46,821.00 L 720.11 821.00 ZM 529.00 826.00 C529.00,830.67 528.83,831.00 526.50,831.00 L 524.00 831.00 L 524.00 788.00 L 533.25 788.00 C544.16,788.01 547.74,789.61 550.96,795.92 C554.60,803.05 553.41,810.95 547.92,816.08 L 544.88 818.92 L 548.89 824.34 C553.07,830.01 553.15,831.00 549.42,831.00 C547.88,831.00 546.02,829.43 543.50,826.00 C539.88,821.07 539.76,821.00 534.41,821.00 L 529.00 821.00 ZM 273.22 828.39 C268.73,830.71 263.85,831.11 259.50,829.50 C257.30,828.69 255.39,828.02 255.26,828.02 C255.12,828.01 253.66,826.13 252.01,823.85 L 249.00 819.70 L 249.00 788.00 L 254.00 788.00 L 254.00 802.05 C254.00,817.68 254.88,820.85 259.97,823.48 C263.48,825.30 266.03,825.40 269.44,823.85 C274.64,821.47 275.47,818.75 275.84,802.75 L 276.18 788.00 L 309.00 788.00 L 309.00 790.50 C309.00,792.83 308.67,793.00 304.02,793.00 L 299.04 793.00 L 298.50 830.50 L 293.50 830.50 L 293.23 811.84 L 292.96 793.18 L 287.60 792.84 L 282.24 792.50 L 281.79 805.69 C281.38,817.92 281.16,819.17 278.68,822.91 C277.21,825.13 274.75,827.59 273.22,828.39 ZM 192.96 822.75 C197.91,825.25 199.91,825.46 204.92,824.02 C211.32,822.19 216.00,815.56 216.00,808.33 C216.00,801.16 210.03,794.58 202.51,793.45 C195.94,792.46 189.28,795.95 186.25,801.96 C185.01,804.42 184.00,807.58 184.00,809.00 C184.00,813.95 188.16,820.33 192.96,822.75 ZM 490.53 822.72 C495.62,825.60 500.51,825.59 505.30,822.69 C510.89,819.30 512.99,815.55 512.99,808.90 C513.01,799.00 506.18,792.47 496.68,793.30 C480.71,794.70 476.51,814.78 490.53,822.72 ZM 339.00 823.93 C342.39,825.35 349.94,824.40 353.00,822.15 C364.79,813.49 360.80,795.59 346.61,793.46 C337.95,792.17 329.79,798.35 328.34,807.29 C327.42,812.95 332.78,821.32 339.00,823.93 ZM 904.00 827.96 C882.40,838.90 862.68,811.22 879.54,793.64 C885.84,787.07 897.78,785.71 905.72,790.65 C911.70,794.37 913.01,796.42 910.80,798.63 C909.25,800.18 908.93,800.12 906.02,797.67 C898.87,791.66 890.34,791.74 883.74,797.90 C880.15,801.25 879.64,802.31 879.24,807.18 C878.69,813.70 880.39,817.67 885.34,821.45 C890.25,825.19 896.41,825.70 901.94,822.81 C906.89,820.23 908.62,818.07 907.69,815.64 C907.18,814.30 905.51,814.00 898.53,814.00 C890.07,814.00 890.00,813.98 890.00,811.47 L 890.00 808.93 L 901.25 809.22 L 912.50 809.50 L 912.81 814.89 C913.08,819.64 912.78,820.62 910.31,823.23 C908.76,824.85 905.92,826.98 904.00,827.96 ZM 374.00 815.50 C374.00,829.86 373.87,831.00 372.17,831.00 C371.16,831.00 370.03,830.70 369.67,830.33 C369.30,829.97 369.00,820.29 369.00,808.83 L 369.00 788.00 L 371.75 788.00 C374.19,788.00 375.66,789.72 384.50,802.97 C390.00,811.20 394.84,817.95 395.25,817.97 C395.66,817.98 396.00,811.25 396.00,803.00 L 396.00 788.00 L 401.00 788.00 L 401.00 809.03 C401.00,826.88 400.77,830.15 399.49,830.64 C397.22,831.51 396.11,830.23 385.58,814.49 C380.25,806.52 375.46,800.00 374.94,800.00 C374.39,800.00 374.00,806.47 374.00,815.50 ZM 843.00 815.42 C843.00,829.86 842.87,831.00 841.17,831.00 C840.16,831.00 839.03,830.70 838.67,830.33 C838.30,829.97 838.00,820.29 838.00,808.83 L 838.00 788.00 L 840.84 788.00 C843.40,788.00 844.67,789.51 853.57,803.00 C859.00,811.25 863.80,818.00 864.22,818.00 C864.65,818.00 865.00,811.25 865.00,803.00 L 865.00 788.00 L 870.04 788.00 L 869.77 809.25 C869.59,823.15 869.54,829.95 867.65,830.50 C865.86,831.03 862.43,825.97 855.69,816.05 L 855.34 815.53 C849.76,807.30 844.70,800.40 844.09,800.20 C843.33,799.94 843.00,804.57 843.00,815.42 ZM 167.07 828.37 C161.96,830.54 159.90,830.87 156.50,830.06 C151.67,828.91 149.13,827.16 145.97,822.80 C142.62,818.17 142.09,813.10 144.40,807.59 C146.18,803.32 147.78,802.35 149.77,804.34 C151.07,805.64 151.14,806.39 150.18,808.51 C147.44,814.52 149.40,820.61 155.01,823.51 C162.43,827.34 170.00,822.40 170.00,813.71 C170.00,808.82 167.41,806.17 161.00,804.50 C151.96,802.15 148.62,796.30 153.07,790.63 C154.74,788.51 155.99,788.00 159.50,788.00 C164.22,788.00 167.00,789.88 167.00,793.07 C167.00,795.38 164.47,795.61 162.36,793.50 C160.50,791.64 159.88,791.63 157.44,793.44 C154.42,795.68 156.72,798.16 163.74,800.23 C172.00,802.66 176.00,807.10 176.00,813.83 C176.00,819.93 172.14,826.22 167.07,828.37 ZM 428.76 828.01 C424.90,830.36 417.08,830.61 412.31,828.54 C408.70,826.96 404.35,821.00 403.41,816.32 C402.71,812.79 404.37,806.77 406.70,804.44 C408.08,803.06 408.42,803.07 410.08,804.57 C411.76,806.09 411.79,806.50 410.46,809.07 C407.26,815.27 410.23,822.09 417.03,824.13 C420.63,825.21 421.60,825.13 424.53,823.55 C427.93,821.72 431.00,816.83 431.00,813.23 C431.00,809.62 427.13,806.09 421.33,804.41 C414.22,802.34 412.00,800.12 412.00,795.06 C412.00,790.32 414.64,787.99 419.97,788.02 C424.08,788.03 425.26,788.67 426.89,791.76 C428.47,794.77 426.05,795.85 422.82,793.59 C420.01,791.62 419.53,791.61 417.57,793.57 C415.36,795.78 417.14,798.66 421.24,799.51 C426.99,800.69 433.00,804.10 434.53,807.05 C436.65,811.16 436.40,818.84 434.01,822.76 C432.91,824.55 430.55,826.91 428.76,828.01 ZM 816.50 816.75 C812.28,829.55 811.57,831.00 809.53,831.00 C808.27,831.00 806.80,830.44 806.25,829.75 C805.70,829.06 803.14,821.75 800.56,813.50 C797.98,805.25 795.23,796.51 794.44,794.07 C792.51,788.13 792.58,787.82 795.71,788.18 C798.26,788.48 798.67,789.33 803.13,803.37 C805.73,811.56 808.23,818.63 808.70,819.10 C809.18,819.58 811.92,812.84 814.85,803.98 C820.04,788.31 820.20,788.00 822.99,788.00 L 825.85 788.00 L 823.52 795.25 C822.24,799.24 819.08,808.91 816.50,816.75 ZM 457.80 823.75 C457.54,829.67 457.25,830.54 455.46,830.79 C454.34,830.95 453.10,830.77 452.71,830.38 C452.32,829.99 452.00,820.29 452.00,808.83 L 452.00 788.00 L 481.00 788.00 L 481.00 793.00 L 458.00 793.00 L 458.00 811.00 L 472.00 811.00 L 472.00 817.00 L 458.09 817.00 ZM 488.65 685.44 C485.56,688.53 482.15,688.72 479.19,685.96 C477.19,684.10 477.00,682.95 477.00,672.96 C477.00,663.33 477.24,661.76 479.00,660.00 C481.33,657.67 485.79,657.39 488.54,659.41 C490.19,660.61 490.52,662.38 490.84,671.84 C491.21,682.58 491.15,682.94 488.65,685.44 ZM 575.67 824.33 C576.03,824.70 578.40,825.00 580.92,825.00 C590.67,824.99 596.28,817.33 592.38,809.36 C590.06,804.61 587.04,803.03 580.25,803.01 L 575.00 803.00 L 575.00 813.33 C575.00,819.02 575.30,823.97 575.67,824.33 ZM 782.00 825.00 L 782.00 831.00 L 771.67 831.00 C765.98,831.00 761.03,830.70 760.67,830.33 C760.30,829.97 760.00,820.29 760.00,808.83 L 760.00 788.00 L 766.00 788.00 L 766.00 825.00 ZM 529.00 793.00 L 529.00 815.00 L 534.10 815.00 C542.70,815.00 547.02,811.04 546.98,803.20 C546.94,796.63 542.35,793.00 534.07,793.00 ZM 720.00 793.00 L 720.00 815.00 L 725.60 815.00 C730.64,815.00 731.54,814.66 734.60,811.60 C737.19,809.01 738.00,807.35 738.00,804.65 C738.00,796.77 733.80,793.00 725.05,793.00 ZM 247.13 825.00 L 246.50 830.50 L 236.45 830.78 C230.92,830.94 226.08,830.75 225.70,830.37 C225.31,829.98 225.00,820.29 225.00,808.83 L 225.00 788.00 L 231.00 788.00 L 231.00 825.00 ZM 541.80 681.74 C541.58,685.97 541.09,687.56 539.95,687.77 C539.10,687.94 538.09,687.75 537.70,687.37 C537.32,686.98 537.00,680.44 537.00,672.83 L 537.00 659.00 L 542.96 659.00 C547.84,659.00 549.12,659.35 549.96,660.93 C551.32,663.46 551.29,668.60 549.91,671.17 C549.12,672.65 549.12,673.52 549.91,674.31 C550.51,674.91 551.00,678.27 551.00,681.77 C551.00,687.80 550.88,688.12 548.75,687.82 C546.76,687.54 546.47,686.84 546.20,681.75 C545.95,676.87 545.61,676.00 544.00,676.00 C542.39,676.00 542.05,676.87 541.80,681.74 ZM 660.97 585.50 C660.98,585.78 662.88,586.00 665.19,586.00 C668.11,586.00 670.07,585.34 671.69,583.83 C673.78,581.86 674.00,580.77 674.00,572.52 C674.00,560.99 673.16,559.62 666.06,559.55 L 660.89 559.50 L 660.91 572.25 C660.92,579.26 660.95,585.22 660.97,585.50 ZM 461.00 680.88 C461.00,685.98 460.73,686.84 458.94,687.31 C457.78,687.61 456.67,687.31 456.41,686.62 C456.15,685.95 456.06,679.57 456.22,672.45 L 456.50 659.50 L 462.19 659.20 C467.16,658.94 468.02,659.18 469.03,661.06 C469.71,662.32 469.94,664.95 469.59,667.36 C468.89,672.14 468.89,672.26 469.63,681.34 C470.13,687.60 470.02,688.15 468.34,687.83 C466.92,687.56 466.38,686.28 465.97,682.18 C465.49,677.42 464.10,675.06 461.75,675.02 C461.34,675.01 461.00,677.65 461.00,680.88 ZM 512.29 603.75 C511.80,605.91 512.05,606.00 518.39,606.00 C522.03,606.00 525.00,605.66 525.01,605.25 C525.03,602.93 519.76,568.20 519.15,566.64 C518.70,565.49 517.34,571.82 515.61,583.14 C514.07,593.24 512.57,602.51 512.29,603.75 ZM 440.80 682.24 C440.58,686.01 440.07,687.56 438.95,687.78 C438.10,687.94 437.09,687.75 436.70,687.37 C436.32,686.98 436.00,680.44 436.00,672.83 L 436.00 659.00 L 441.96 659.00 C448.93,659.00 450.00,660.13 450.00,667.48 C450.00,671.04 449.44,672.65 447.55,674.55 C446.20,675.90 444.19,677.00 443.10,677.00 C441.40,677.00 441.06,677.77 440.80,682.24 ZM 502.14 682.79 C502.36,686.35 502.07,687.56 500.92,687.78 C500.08,687.94 499.09,687.75 498.70,687.37 C498.32,686.98 498.00,680.44 498.00,672.83 L 498.00 659.00 L 503.46 659.00 C509.92,659.00 511.01,660.26 510.98,667.68 C510.97,673.61 510.42,674.51 505.64,676.51 C501.94,678.05 501.86,678.20 502.14,682.79 ZM 791.00 788.00 L 791.00 831.00 L 788.67 831.00 C787.38,831.00 786.03,830.70 785.67,830.33 C785.30,829.97 785.00,820.29 785.00,808.83 L 785.00 788.00 ZM 317.77 809.25 C317.51,829.78 317.43,830.51 315.46,830.79 C314.34,830.95 313.10,830.77 312.71,830.38 C312.32,829.99 312.00,820.29 312.00,808.83 L 312.00 788.00 L 318.04 788.00 ZM 618.78 686.44 C614.17,689.67 608.00,686.84 608.00,681.50 C608.00,679.67 608.53,679.00 610.00,679.00 C611.10,679.00 612.00,679.59 612.00,680.30 C612.00,682.57 614.19,684.09 615.68,682.85 C617.85,681.05 617.23,679.33 612.50,674.00 C608.80,669.83 608.00,668.24 608.00,665.02 C608.00,660.79 610.58,658.00 614.50,658.00 C617.62,658.00 621.00,660.83 621.00,663.45 C621.00,666.50 618.01,667.75 617.29,665.00 C617.00,663.89 615.93,663.00 614.88,663.00 C611.71,663.00 612.68,666.93 617.00,671.62 C620.42,675.33 621.00,676.60 621.00,680.42 C621.00,683.90 620.51,685.23 618.78,686.44 ZM 601.38 687.20 C600.78,688.16 590.61,688.28 589.67,687.33 C589.30,686.97 589.00,680.44 589.00,672.83 L 589.00 659.00 L 595.57 659.00 C601.29,659.00 602.10,659.23 601.82,660.75 C601.58,661.97 600.36,662.59 597.74,662.81 C594.11,663.11 594.00,663.23 594.00,667.06 C594.00,670.77 594.17,671.00 597.00,671.00 C599.33,671.00 600.00,671.44 600.00,673.00 C600.00,674.56 599.33,675.00 596.94,675.00 C593.96,675.00 593.89,675.11 594.19,679.25 C594.47,683.15 594.75,683.53 597.50,683.84 C600.51,684.18 602.29,685.72 601.38,687.20 ZM 833.00 788.00 L 833.00 831.00 L 828.00 831.00 L 828.00 788.00 ZM 530.00 686.00 C530.00,687.75 529.33,688.00 524.67,688.00 C521.73,688.00 519.03,687.70 518.67,687.33 C518.30,686.97 518.00,680.44 518.00,672.83 L 518.00 659.00 L 524.00 659.00 C529.33,659.00 530.00,659.22 530.00,661.00 C530.00,662.67 529.33,663.00 525.94,663.00 L 521.88 663.00 L 522.19 666.75 C522.47,670.19 522.77,670.53 525.83,670.82 C528.32,671.06 529.01,671.52 528.58,672.65 C528.26,673.48 528.00,674.35 528.00,674.58 C528.00,674.81 526.65,675.00 525.00,675.00 C522.18,675.00 522.00,675.23 522.00,678.89 C522.00,683.01 523.08,684.00 527.58,684.00 C529.33,684.00 530.00,684.55 530.00,686.00 ZM 566.00 675.07 L 566.00 687.00 L 561.00 687.00 L 561.00 675.12 C561.00,664.07 560.86,663.20 559.00,662.71 C557.90,662.42 557.00,661.47 557.00,660.59 C557.00,659.29 558.27,659.00 564.07,659.00 C570.27,659.00 571.11,659.22 570.81,660.75 C570.63,661.71 569.47,662.64 568.24,662.82 C566.06,663.13 566.00,663.48 566.00,675.07 ZM 648.00 304.00 L 648.00 317.00 L 635.00 317.00 L 635.00 304.00 ZM 663.00 304.00 L 663.00 317.00 L 650.00 317.00 L 650.00 304.00 ZM 541.00 441.00 L 541.00 454.00 L 528.00 454.00 L 528.00 441.00 ZM 526.00 426.00 L 526.00 439.00 L 520.17 439.00 C516.96,439.00 514.03,438.70 513.67,438.33 C513.30,437.97 513.00,435.04 513.00,431.83 L 513.00 426.00 ZM 541.00 426.00 L 541.00 439.00 L 535.17 439.00 C531.96,439.00 529.03,438.70 528.67,438.33 C528.30,437.97 528.00,435.04 528.00,431.83 L 528.00 426.00 ZM 420.00 306.00 L 420.00 319.00 L 414.17 319.00 C410.96,319.00 408.03,318.70 407.67,318.33 C407.30,317.97 407.00,315.04 407.00,311.83 L 407.00 306.00 ZM 405.00 321.00 L 405.00 334.00 L 399.17 334.00 C395.96,334.00 393.03,333.70 392.67,333.33 C392.30,332.97 392.00,330.04 392.00,326.83 L 392.00 321.00 ZM 420.00 321.00 L 420.00 334.00 L 414.17 334.00 C410.96,334.00 408.03,333.70 407.67,333.33 C407.30,332.97 407.00,330.04 407.00,326.83 L 407.00 321.00 ZM 526.00 201.00 L 526.00 214.00 L 520.17 214.00 C516.96,214.00 514.03,213.70 513.67,213.33 C513.30,212.97 513.00,210.04 513.00,206.83 L 513.00 201.00 ZM 663.10 320.00 L 662.50 332.50 L 656.25 332.80 L 650.00 333.10 L 650.00 320.00 ZM 526.00 440.90 L 526.00 454.00 L 512.90 454.00 L 513.50 441.50 L 519.75 441.20 ZM 541.10 201.00 L 540.50 213.50 L 528.00 214.10 L 528.00 201.00 ZM 648.10 320.00 L 647.50 332.50 L 641.96 332.79 C638.91,332.96 636.10,332.77 635.71,332.38 C635.32,331.99 635.00,329.04 635.00,325.83 L 635.00 320.00 ZM 404.80 312.25 L 404.50 318.50 L 398.96 318.79 C395.91,318.96 393.10,318.77 392.71,318.38 C392.32,317.99 392.00,315.04 392.00,311.83 L 392.00 306.00 L 405.10 306.00 ZM 526.10 186.00 L 525.50 198.50 L 519.67 198.50 C516.46,198.50 513.65,198.31 513.42,198.08 C513.19,197.85 513.00,195.04 513.00,191.83 L 513.00 186.00 ZM 540.80 192.08 L 540.50 198.15 L 534.76 198.42 C531.60,198.56 528.78,198.45 528.51,198.17 C528.23,197.89 528.00,195.04 528.00,191.83 L 528.00 186.00 L 541.10 186.00 ZM 581.78 673.24 C581.55,685.15 581.25,687.52 579.95,687.77 C579.10,687.94 578.09,687.75 577.70,687.37 C577.32,686.98 577.00,680.17 577.00,672.23 C577.00,659.47 577.18,657.86 578.58,658.39 C579.45,658.73 580.59,659.00 581.11,659.00 C581.67,659.00 581.94,664.76 581.78,673.24 ZM 482.11 682.63 C484.60,685.64 485.50,683.31 485.79,673.09 C486.07,662.93 486.05,662.85 483.79,663.18 C481.63,663.48 481.48,663.99 481.21,672.35 C481.02,678.12 481.33,681.70 482.11,682.63 ZM 575.38 797.56 C576.12,799.48 583.36,799.47 584.96,797.55 C585.62,796.75 586.01,795.29 585.82,794.30 C585.54,792.85 584.49,792.50 580.50,792.50 C575.38,792.50 573.97,793.89 575.38,797.56 ZM 441.60 672.26 C443.28,673.94 445.00,671.48 445.00,667.39 C445.00,663.67 444.70,663.00 443.00,663.00 C441.31,663.00 441.00,663.67 441.00,667.33 C441.00,669.72 441.27,671.94 441.60,672.26 ZM 503.66 672.32 C505.06,673.73 507.00,670.57 507.00,666.88 C507.00,663.67 506.66,663.00 505.00,663.00 C503.31,663.00 503.00,663.67 503.00,667.33 C503.00,669.72 503.30,671.96 503.66,672.32 ZM 461.60 671.26 C462.83,672.50 464.81,670.76 465.20,668.09 C465.76,664.30 465.17,663.00 462.92,663.00 C461.36,663.00 461.00,663.72 461.00,666.83 C461.00,668.94 461.27,670.94 461.60,671.26 ZM 542.69 671.35 C544.21,672.87 545.52,671.12 545.81,667.17 C546.08,663.53 545.85,663.00 544.06,663.00 C542.34,663.00 542.00,663.63 542.00,666.83 C542.00,668.94 542.31,670.98 542.69,671.35 Z" fill="rgb(46,10,7)"/>
<path d="M 0.00 512.00 L 0.00 0.00 L 512.00 0.00 L 1024.00 0.00 L 1024.00 512.00 L 1024.00 1024.00 L 512.00 1024.00 L 0.00 1024.00 L 0.00 512.00 ZM 167.07 828.37 C172.14,826.22 176.00,819.93 176.00,813.83 C176.00,807.10 172.00,802.66 163.74,800.23 C156.72,798.16 154.42,795.68 157.44,793.44 C159.88,791.63 160.50,791.64 162.36,793.50 C164.47,795.61 167.00,795.38 167.00,793.07 C167.00,789.88 164.22,788.00 159.50,788.00 C155.99,788.00 154.74,788.51 153.07,790.63 C148.62,796.30 151.96,802.15 161.00,804.50 C167.41,806.17 170.00,808.82 170.00,813.71 C170.00,822.40 162.43,827.34 155.01,823.51 C149.40,820.61 147.44,814.52 150.18,808.51 C151.14,806.39 151.07,805.64 149.77,804.34 C147.78,802.35 146.18,803.32 144.40,807.59 C142.09,813.10 142.62,818.17 145.97,822.80 C149.13,827.16 151.67,828.91 156.50,830.06 C159.90,830.87 161.96,830.54 167.07,828.37 ZM 210.09 827.92 C223.28,821.30 225.61,803.35 214.60,793.20 C209.65,788.64 205.80,787.52 197.42,788.22 C186.57,789.11 179.03,797.44 179.04,808.50 C179.05,816.08 181.49,821.61 186.55,825.47 C193.74,830.96 202.29,831.85 210.09,827.92 ZM 246.82 827.75 L 247.13 825.00 L 239.07 825.00 L 231.00 825.00 L 231.00 806.50 L 231.00 788.00 L 228.00 788.00 L 225.00 788.00 L 225.00 808.83 C225.00,820.29 225.31,829.98 225.70,830.37 C226.08,830.75 230.92,830.94 236.45,830.78 L 246.50 830.50 L 246.82 827.75 ZM 273.22 828.39 C274.75,827.59 277.21,825.13 278.68,822.91 C281.16,819.17 281.38,817.92 281.79,805.69 L 282.24 792.50 L 287.60 792.84 L 292.96 793.18 L 293.23 811.84 L 293.50 830.50 L 296.00 830.50 L 298.50 830.50 L 298.77 811.75 L 299.04 793.00 L 304.02 793.00 C308.67,793.00 309.00,792.83 309.00,790.50 L 309.00 788.00 L 292.59 788.00 L 276.18 788.00 L 275.84 802.75 C275.47,818.75 274.64,821.47 269.44,823.85 C266.03,825.40 263.48,825.30 259.97,823.48 C254.88,820.85 254.00,817.68 254.00,802.05 L 254.00 788.00 L 251.50 788.00 L 249.00 788.00 L 249.00 803.85 L 249.00 819.70 L 252.01 823.85 C253.66,826.13 255.12,828.01 255.26,828.02 C255.39,828.02 257.30,828.69 259.50,829.50 C263.85,831.11 268.73,830.71 273.22,828.39 ZM 317.77 809.25 L 318.04 788.00 L 315.02 788.00 L 312.00 788.00 L 312.00 808.83 C312.00,820.29 312.32,829.99 312.71,830.38 C313.10,830.77 314.34,830.95 315.46,830.79 C317.43,830.51 317.51,829.78 317.77,809.25 ZM 353.50 828.25 C360.65,824.73 364.50,819.27 365.58,811.14 C366.49,804.23 364.20,798.36 358.54,793.14 C353.65,788.64 349.77,787.52 341.42,788.22 C327.93,789.33 319.50,803.42 324.33,816.75 C328.36,827.85 342.79,833.54 353.50,828.25 ZM 374.00 815.50 C374.00,806.47 374.39,800.00 374.94,800.00 C375.46,800.00 380.25,806.52 385.58,814.49 C396.11,830.23 397.22,831.51 399.49,830.64 C400.77,830.15 401.00,826.88 401.00,809.03 L 401.00 788.00 L 398.50 788.00 L 396.00 788.00 L 396.00 803.00 C396.00,811.25 395.66,817.98 395.25,817.97 C394.84,817.95 390.00,811.20 384.50,802.97 C375.66,789.72 374.19,788.00 371.75,788.00 L 369.00 788.00 L 369.00 808.83 C369.00,820.29 369.30,829.97 369.67,830.33 C370.03,830.70 371.16,831.00 372.17,831.00 C373.87,831.00 374.00,829.86 374.00,815.50 ZM 457.80 823.75 L 458.09 817.00 L 465.05 817.00 L 472.00 817.00 L 472.00 814.00 L 472.00 811.00 L 465.00 811.00 L 458.00 811.00 L 458.00 802.00 L 458.00 793.00 L 469.50 793.00 L 481.00 793.00 L 481.00 790.50 L 481.00 788.00 L 466.50 788.00 L 452.00 788.00 L 452.00 808.83 C452.00,820.29 452.32,829.99 452.71,830.38 C453.10,830.77 454.34,830.95 455.46,830.79 C457.25,830.54 457.54,829.67 457.80,823.75 ZM 503.27 829.62 C509.83,827.64 513.70,824.53 516.53,818.95 C522.00,808.14 518.15,795.18 507.91,789.96 C503.62,787.76 493.98,787.30 489.32,789.06 C485.31,790.57 480.07,795.82 477.90,800.50 C472.33,812.50 479.85,826.74 493.50,830.06 C497.92,831.14 498.27,831.12 503.27,829.62 ZM 529.00 826.00 L 529.00 821.00 L 534.41 821.00 C539.76,821.00 539.88,821.07 543.50,826.00 C546.02,829.43 547.88,831.00 549.42,831.00 C553.15,831.00 553.07,830.01 548.89,824.34 L 544.88 818.92 L 547.92 816.08 C553.41,810.95 554.60,803.05 550.96,795.92 C547.74,789.61 544.16,788.01 533.25,788.00 L 524.00 788.00 L 524.00 809.50 L 524.00 831.00 L 526.50 831.00 C528.83,831.00 529.00,830.67 529.00,826.00 ZM 591.45 828.03 C601.21,822.00 601.39,806.81 591.77,801.46 C588.35,799.55 588.18,799.25 589.65,797.78 C590.71,796.71 591.05,795.32 590.63,793.65 C589.42,788.84 587.56,788.00 578.09,788.00 L 569.33 788.00 L 569.19 808.64 C569.12,819.99 569.33,829.73 569.67,830.27 C570.04,830.87 573.78,831.06 579.06,830.76 C585.79,830.38 588.69,829.74 591.45,828.03 ZM 629.00 828.03 L 629.00 825.07 L 618.75 824.78 L 608.50 824.50 L 608.50 820.00 L 608.50 815.50 L 617.25 815.21 C625.76,814.93 626.00,814.86 626.00,812.50 C626.00,810.14 625.76,810.07 617.25,809.79 L 608.50 809.50 L 608.50 801.50 L 608.50 793.50 L 619.00 793.00 C624.78,792.72 632.08,792.65 635.23,792.84 L 640.96 793.18 L 641.23 811.84 L 641.50 830.50 L 644.00 830.50 L 646.50 830.50 L 646.77 811.75 L 647.04 793.00 L 657.02 793.00 L 667.00 793.00 L 667.00 812.00 L 667.00 831.00 L 669.50 831.00 L 672.00 831.00 L 672.00 812.00 L 672.00 793.00 L 678.00 793.00 L 684.00 793.00 L 684.00 812.03 L 684.00 831.06 L 696.75 830.78 L 709.50 830.50 L 709.81 827.79 L 710.13 825.07 L 699.81 824.79 L 689.50 824.50 L 689.50 820.00 L 689.50 815.50 L 698.25 815.21 C706.76,814.93 707.00,814.86 707.00,812.50 C707.00,810.14 706.76,810.07 698.25,809.79 L 689.50 809.50 L 689.50 801.50 L 689.50 793.50 L 699.75 793.22 C709.87,792.93 710.00,792.90 710.00,790.49 L 710.00 788.04 L 656.50 788.02 L 603.00 787.99 L 603.00 808.83 C603.00,820.29 603.30,829.97 603.67,830.33 C604.03,830.70 609.88,831.00 616.67,831.00 L 629.00 831.00 L 629.00 828.03 ZM 719.80 825.75 L 720.11 821.00 L 725.46 821.00 C730.74,821.00 730.86,821.07 734.40,826.00 C737.07,829.71 738.64,831.00 740.50,831.00 C743.87,831.00 743.66,829.66 739.37,823.82 L 735.73 818.87 L 738.81 815.68 C744.44,809.85 745.42,803.57 741.86,796.22 C738.60,789.47 735.37,788.01 723.75,788.00 L 714.00 788.00 L 714.00 808.83 C714.00,820.29 714.32,829.99 714.71,830.38 C715.10,830.77 716.34,830.95 717.46,830.79 C719.13,830.55 719.55,829.65 719.80,825.75 ZM 782.00 828.00 L 782.00 825.00 L 774.00 825.00 L 766.00 825.00 L 766.00 806.50 L 766.00 788.00 L 763.00 788.00 L 760.00 788.00 L 760.00 808.83 C760.00,820.29 760.30,829.97 760.67,830.33 C761.03,830.70 765.98,831.00 771.67,831.00 L 782.00 831.00 L 782.00 828.00 ZM 791.00 809.50 L 791.00 788.00 L 788.00 788.00 L 785.00 788.00 L 785.00 808.83 C785.00,820.29 785.30,829.97 785.67,830.33 C786.03,830.70 787.38,831.00 788.67,831.00 L 791.00 831.00 L 791.00 809.50 ZM 816.50 816.75 C819.08,808.91 822.24,799.24 823.52,795.25 L 825.85 788.00 L 822.99 788.00 C820.20,788.00 820.04,788.31 814.85,803.98 C811.92,812.84 809.18,819.58 808.70,819.10 C808.23,818.63 805.73,811.56 803.13,803.37 C798.67,789.33 798.26,788.48 795.71,788.18 C792.58,787.82 792.51,788.13 794.44,794.07 C795.23,796.51 797.98,805.25 800.56,813.50 C803.14,821.75 805.70,829.06 806.25,829.75 C806.80,830.44 808.27,831.00 809.53,831.00 C811.57,831.00 812.28,829.55 816.50,816.75 ZM 833.00 809.50 L 833.00 788.00 L 830.50 788.00 L 828.00 788.00 L 828.00 809.50 L 828.00 831.00 L 830.50 831.00 L 833.00 831.00 L 833.00 809.50 ZM 843.00 815.42 C843.00,804.57 843.33,799.94 844.09,800.20 C844.70,800.40 849.76,807.30 855.34,815.53 C869.54,836.46 869.42,836.51 869.77,809.25 L 870.04 788.00 L 867.52 788.00 L 865.00 788.00 L 865.00 803.00 C865.00,811.25 864.65,818.00 864.22,818.00 C863.80,818.00 859.00,811.25 853.57,803.00 C844.67,789.51 843.40,788.00 840.84,788.00 L 838.00 788.00 L 838.00 808.83 C838.00,820.29 838.30,829.97 838.67,830.33 C839.03,830.70 840.16,831.00 841.17,831.00 C842.87,831.00 843.00,829.86 843.00,815.42 ZM 904.00 827.96 C905.92,826.98 908.76,824.85 910.31,823.23 C912.78,820.62 913.08,819.64 912.81,814.89 L 912.50 809.50 L 901.25 809.22 L 890.00 808.93 L 890.00 811.47 C890.00,813.98 890.07,814.00 898.53,814.00 C905.51,814.00 907.18,814.30 907.69,815.64 C908.62,818.07 906.89,820.23 901.94,822.81 C896.41,825.70 890.25,825.19 885.34,821.45 C880.39,817.67 878.69,813.70 879.24,807.18 C879.64,802.31 880.15,801.25 883.74,797.90 C890.34,791.74 898.87,791.66 906.02,797.67 C908.93,800.12 909.25,800.18 910.80,798.63 C913.01,796.42 911.70,794.37 905.72,790.65 C897.78,785.71 885.84,787.07 879.54,793.64 C862.68,811.22 882.40,838.90 904.00,827.96 ZM 428.76 828.01 C430.55,826.91 432.91,824.55 434.01,822.76 C436.40,818.84 436.65,811.16 434.53,807.05 C433.00,804.10 426.99,800.69 421.24,799.51 C417.14,798.66 415.36,795.78 417.57,793.57 C419.53,791.61 420.01,791.62 422.82,793.59 C426.05,795.85 428.47,794.77 426.89,791.76 C425.26,788.67 424.08,788.03 419.97,788.02 C414.64,787.99 412.00,790.32 412.00,795.06 C412.00,800.12 414.22,802.34 421.33,804.41 C427.13,806.09 431.00,809.62 431.00,813.23 C431.00,816.83 427.93,821.72 424.53,823.55 C421.60,825.13 420.63,825.21 417.03,824.13 C410.23,822.09 407.26,815.27 410.46,809.07 C411.79,806.50 411.76,806.09 410.08,804.57 C408.42,803.07 408.08,803.06 406.70,804.44 C404.37,806.77 402.71,812.79 403.41,816.32 C404.35,821.00 408.70,826.96 412.31,828.54 C417.08,830.61 424.90,830.36 428.76,828.01 ZM 440.80 682.24 C441.06,677.77 441.40,677.00 443.10,677.00 C444.19,677.00 446.20,675.90 447.55,674.55 C449.44,672.65 450.00,671.04 450.00,667.48 C450.00,660.13 448.93,659.00 441.96,659.00 L 436.00 659.00 L 436.00 672.83 C436.00,680.44 436.32,686.98 436.70,687.37 C437.09,687.75 438.10,687.94 438.95,687.78 C440.07,687.56 440.58,686.01 440.80,682.24 ZM 461.00 680.88 C461.00,677.65 461.34,675.01 461.75,675.02 C464.10,675.06 465.49,677.42 465.97,682.18 C466.38,686.28 466.92,687.56 468.34,687.83 C470.02,688.15 470.13,687.60 469.63,681.34 C468.89,672.26 468.89,672.14 469.59,667.36 C469.94,664.95 469.71,662.32 469.03,661.06 C468.02,659.18 467.16,658.94 462.19,659.20 L 456.50 659.50 L 456.22 672.45 C456.06,679.57 456.15,685.95 456.41,686.62 C456.67,687.31 457.78,687.61 458.94,687.31 C460.73,686.84 461.00,685.98 461.00,680.88 ZM 488.65 685.44 C491.15,682.94 491.21,682.58 490.84,671.84 C490.52,662.38 490.19,660.61 488.54,659.41 C485.79,657.39 481.33,657.67 479.00,660.00 C477.24,661.76 477.00,663.33 477.00,672.96 C477.00,682.95 477.19,684.10 479.19,685.96 C482.15,688.72 485.56,688.53 488.65,685.44 ZM 502.14 682.79 C501.86,678.20 501.94,678.05 505.64,676.51 C510.42,674.51 510.97,673.61 510.98,667.68 C511.01,660.26 509.92,659.00 503.46,659.00 L 498.00 659.00 L 498.00 672.83 C498.00,680.44 498.32,686.98 498.70,687.37 C499.09,687.75 500.08,687.94 500.92,687.78 C502.07,687.56 502.36,686.35 502.14,682.79 ZM 530.00 686.00 C530.00,684.55 529.33,684.00 527.58,684.00 C523.08,684.00 522.00,683.01 522.00,678.89 C522.00,675.23 522.18,675.00 525.00,675.00 C526.65,675.00 528.00,674.81 528.00,674.58 C528.00,674.35 528.26,673.48 528.58,672.65 C529.01,671.52 528.32,671.06 525.83,670.82 C522.77,670.53 522.47,670.19 522.19,666.75 L 521.88 663.00 L 525.94 663.00 C529.33,663.00 530.00,662.67 530.00,661.00 C530.00,659.22 529.33,659.00 524.00,659.00 L 518.00 659.00 L 518.00 672.83 C518.00,680.44 518.30,686.97 518.67,687.33 C519.03,687.70 521.73,688.00 524.67,688.00 C529.33,688.00 530.00,687.75 530.00,686.00 ZM 541.80 681.74 C542.05,676.87 542.39,676.00 544.00,676.00 C545.61,676.00 545.95,676.87 546.20,681.75 C546.47,686.84 546.76,687.54 548.75,687.82 C550.88,688.12 551.00,687.80 551.00,681.77 C551.00,678.27 550.51,674.91 549.91,674.31 C549.12,673.52 549.12,672.65 549.91,671.17 C551.29,668.60 551.32,663.46 549.96,660.93 C549.12,659.35 547.84,659.00 542.96,659.00 L 537.00 659.00 L 537.00 672.83 C537.00,680.44 537.32,686.98 537.70,687.37 C538.09,687.75 539.10,687.94 539.95,687.77 C541.09,687.56 541.58,685.97 541.80,681.74 ZM 581.78 673.24 C581.94,664.76 581.67,659.00 581.11,659.00 C580.59,659.00 579.45,658.73 578.58,658.39 C577.18,657.86 577.00,659.47 577.00,672.23 C577.00,680.17 577.32,686.98 577.70,687.37 C578.09,687.75 579.10,687.94 579.95,687.77 C581.25,687.52 581.55,685.15 581.78,673.24 ZM 601.38 687.20 C602.29,685.72 600.51,684.18 597.50,683.84 C594.75,683.53 594.47,683.15 594.19,679.25 C593.89,675.11 593.96,675.00 596.94,675.00 C599.33,675.00 600.00,674.56 600.00,673.00 C600.00,671.44 599.33,671.00 597.00,671.00 C594.17,671.00 594.00,670.77 594.00,667.06 C594.00,663.23 594.11,663.11 597.74,662.81 C600.36,662.59 601.58,661.97 601.82,660.75 C602.10,659.23 601.29,659.00 595.57,659.00 L 589.00 659.00 L 589.00 672.83 C589.00,680.44 589.30,686.97 589.67,687.33 C590.61,688.28 600.78,688.16 601.38,687.20 ZM 618.78 686.44 C620.51,685.23 621.00,683.90 621.00,680.42 C621.00,676.60 620.42,675.33 617.00,671.62 C612.68,666.93 611.71,663.00 614.88,663.00 C615.93,663.00 617.00,663.89 617.29,665.00 C618.01,667.75 621.00,666.50 621.00,663.45 C621.00,660.83 617.62,658.00 614.50,658.00 C610.58,658.00 608.00,660.79 608.00,665.02 C608.00,668.24 608.80,669.83 612.50,674.00 C617.23,679.33 617.85,681.05 615.68,682.85 C614.19,684.09 612.00,682.57 612.00,680.30 C612.00,679.59 611.10,679.00 610.00,679.00 C608.53,679.00 608.00,679.67 608.00,681.50 C608.00,686.84 614.17,689.67 618.78,686.44 ZM 566.00 675.07 C566.00,663.48 566.06,663.13 568.24,662.82 C569.47,662.64 570.63,661.71 570.81,660.75 C571.11,659.22 570.27,659.00 564.07,659.00 C558.27,659.00 557.00,659.29 557.00,660.59 C557.00,661.47 557.90,662.42 559.00,662.71 C560.86,663.20 561.00,664.07 561.00,675.12 L 561.00 687.00 L 563.50 687.00 L 566.00 687.00 L 566.00 675.07 ZM 352.51 632.00 C359.75,627.52 362.87,614.94 359.56,603.55 C358.08,598.47 356.64,596.47 348.06,587.62 C336.86,576.05 335.00,573.02 335.00,566.25 C335.00,560.30 336.19,559.00 341.64,559.00 C346.52,559.00 347.25,559.81 347.97,566.00 L 348.50 570.50 L 354.50 570.50 L 360.50 570.50 L 360.81 566.82 C361.49,558.61 356.91,550.11 350.33,547.36 C346.10,545.60 335.86,545.61 331.61,547.39 C323.98,550.58 320.30,558.74 321.24,570.40 C321.92,578.82 324.82,583.97 333.81,592.70 C344.17,602.77 346.99,607.20 347.00,613.42 C347.00,619.38 345.01,622.00 340.50,622.00 C336.21,622.00 334.07,619.36 333.33,613.14 L 332.72 608.00 L 326.94 608.00 C323.22,608.00 321.01,608.45 320.73,609.25 C319.84,611.77 321.30,621.60 323.10,625.17 C325.20,629.32 329.73,632.91 334.36,634.11 C339.62,635.46 348.59,634.41 352.51,632.00 ZM 423.62 633.09 C428.71,630.78 432.56,625.87 433.92,619.98 C434.49,617.52 434.96,608.62 434.98,600.21 L 435.00 584.93 L 425.25 585.21 L 415.50 585.50 L 415.50 591.50 L 415.50 597.50 L 418.86 597.82 L 422.22 598.14 L 421.83 608.67 C421.50,617.61 421.15,619.41 419.53,620.60 C417.01,622.44 412.98,622.38 410.22,620.44 C408.01,618.90 408.00,618.71 408.00,590.07 C408.00,558.07 407.89,558.60 414.61,558.60 C419.79,558.60 421.37,560.88 421.83,569.00 L 422.23 576.00 L 428.76 576.00 L 435.30 576.00 L 434.67 567.82 C433.83,556.99 431.09,551.40 425.09,548.29 C416.53,543.84 402.95,546.04 398.26,552.63 C394.23,558.30 393.84,562.10 394.18,592.50 C394.49,620.80 394.56,621.60 396.84,625.59 C401.66,633.99 414.01,637.45 423.62,633.09 ZM 624.75 633.46 C629.70,631.39 631.93,629.26 634.12,624.50 C635.79,620.85 635.96,617.27 635.98,583.75 L 636.00 547.00 L 630.15 547.00 L 624.29 547.00 L 623.65 554.65 C623.29,558.86 623.00,574.91 623.00,590.32 C623.00,614.99 622.80,618.56 621.35,620.17 C619.07,622.69 613.80,622.54 611.40,619.90 C609.62,617.92 609.48,615.58 609.21,582.40 L 608.93 547.00 L 602.46 547.00 L 596.00 547.00 L 596.01 582.75 C596.01,605.81 596.40,619.92 597.12,622.49 C598.41,627.15 603.73,632.57 608.31,633.90 C613.31,635.34 620.71,635.15 624.75,633.46 ZM 383.76 590.25 L 384.02 547.00 L 377.01 547.00 L 370.00 547.00 L 370.00 589.83 C370.00,613.39 370.32,632.99 370.71,633.38 C371.10,633.77 374.14,633.95 377.46,633.79 L 383.50 633.50 L 383.76 590.25 ZM 457.00 603.50 C457.27,587.00 457.77,574.40 458.10,575.50 C458.43,576.60 461.29,587.17 464.46,599.00 C467.63,610.83 471.09,623.56 472.16,627.29 L 474.11 634.09 L 480.81 633.79 L 487.50 633.50 L 487.76 590.25 L 488.02 547.00 L 482.01 547.00 L 476.00 547.00 L 476.00 570.50 C476.00,583.42 475.65,594.00 475.22,594.00 C474.78,594.00 472.00,584.89 469.04,573.75 C466.07,562.61 463.25,552.04 462.77,550.25 L 461.91 547.00 L 453.45 547.00 L 445.00 547.00 L 445.00 590.55 L 445.00 634.10 L 450.75 633.80 L 456.50 633.50 L 457.00 603.50 ZM 508.34 630.75 C508.65,628.96 509.20,625.36 509.56,622.75 L 510.23 618.00 L 518.57 618.00 L 526.91 618.00 L 527.49 621.75 C527.81,623.81 528.39,627.30 528.79,629.50 L 529.50 633.50 L 535.40 633.80 C538.64,633.97 541.69,633.71 542.18,633.22 C543.00,632.40 539.58,608.80 532.51,566.50 C531.14,558.25 530.01,550.49 530.00,549.25 C530.00,547.06 529.72,547.00 519.59,547.00 L 509.18 547.00 L 508.13 553.75 C507.55,557.46 504.83,574.45 502.08,591.50 C499.32,608.55 496.77,625.09 496.40,628.25 L 495.72 634.00 L 501.75 634.00 C507.77,634.00 507.78,634.00 508.34,630.75 ZM 574.76 596.25 L 575.02 559.00 L 582.01 559.00 L 589.00 559.00 L 589.00 553.00 L 589.00 547.00 L 568.00 547.00 L 547.00 547.00 L 547.00 553.00 L 547.00 559.00 L 554.00 559.00 L 561.00 559.00 L 561.00 595.83 C561.00,616.09 561.32,632.99 561.71,633.38 C562.10,633.77 565.14,633.95 568.46,633.79 L 574.50 633.50 L 574.76 596.25 ZM 660.77 616.25 L 661.05 599.00 L 665.97 599.00 C673.38,599.00 674.00,600.40 674.00,617.03 C674.00,633.75 674.25,634.23 682.48,633.81 L 688.41 633.50 L 688.15 619.00 C687.84,602.35 686.92,597.77 683.12,593.96 L 680.40 591.24 L 683.15 588.16 C686.97,583.88 688.28,578.07 687.82,567.46 C687.35,556.79 685.46,552.67 679.44,549.27 C675.88,547.25 674.14,547.03 661.25,547.02 L 647.00 547.00 L 647.00 589.83 C647.00,613.39 647.32,632.99 647.71,633.38 C648.10,633.77 651.14,633.95 654.46,633.79 L 660.50 633.50 L 660.77 616.25 ZM 735.36 627.25 L 735.50 621.00 L 723.75 621.00 L 712.00 621.00 L 712.00 608.54 L 712.00 596.08 L 721.25 595.79 L 730.50 595.50 L 730.80 589.79 L 731.10 584.08 L 721.80 583.79 L 712.50 583.50 L 712.22 571.25 L 711.94 559.00 L 723.83 559.00 L 735.72 559.00 L 735.61 553.00 L 735.50 547.00 L 716.75 547.00 L 698.00 547.00 L 698.00 589.83 C698.00,613.39 698.31,632.98 698.69,633.36 C699.07,633.73 707.44,633.92 717.30,633.77 L 735.22 633.50 L 735.36 627.25 ZM 534.41 510.11 C552.65,496.18 561.79,489.12 586.86,469.61 L 615.00 447.71 L 615.00 391.36 L 615.00 335.00 L 595.08 335.00 L 575.16 335.00 L 574.46 341.49 C574.08,345.07 574.08,350.47 574.46,353.49 L 575.14 359.00 L 582.57 359.00 L 590.00 359.00 L 590.00 396.83 L 590.00 434.66 L 578.75 443.55 C572.56,448.43 558.83,459.33 548.23,467.76 C536.05,477.46 528.52,482.82 527.74,482.34 C527.07,481.92 513.46,471.27 497.51,458.67 L 468.50 435.76 L 468.20 431.38 L 467.89 427.00 L 455.45 427.00 L 443.00 427.00 L 443.00 436.92 L 443.00 446.83 L 452.25 454.22 C457.34,458.28 466.45,465.50 472.50,470.26 C478.55,475.02 493.40,486.79 505.50,496.42 C517.60,506.05 527.91,513.94 528.41,513.96 C528.91,513.98 531.61,512.25 534.41,510.11 ZM 526.00 447.45 L 526.00 440.90 L 519.75 441.20 L 513.50 441.50 L 513.20 447.75 L 512.90 454.00 L 519.45 454.00 L 526.00 454.00 L 526.00 447.45 ZM 541.00 447.50 L 541.00 441.00 L 534.50 441.00 L 528.00 441.00 L 528.00 447.50 L 528.00 454.00 L 534.50 454.00 L 541.00 454.00 L 541.00 447.50 ZM 526.00 432.50 L 526.00 426.00 L 519.50 426.00 L 513.00 426.00 L 513.00 431.83 C513.00,435.04 513.30,437.97 513.67,438.33 C514.03,438.70 516.96,439.00 520.17,439.00 L 526.00 439.00 L 526.00 432.50 ZM 541.00 432.50 L 541.00 426.00 L 534.50 426.00 L 528.00 426.00 L 528.00 431.83 C528.00,435.04 528.30,437.97 528.67,438.33 C529.03,438.70 531.96,439.00 535.17,439.00 L 541.00 439.00 L 541.00 432.50 ZM 514.00 384.50 L 514.00 364.00 L 501.00 364.00 L 488.00 364.00 L 488.00 371.00 L 488.00 378.00 L 450.75 377.96 L 413.50 377.93 L 391.00 350.91 C378.62,336.05 367.95,323.12 367.28,322.17 C366.22,320.68 368.63,316.99 385.05,294.97 C414.87,255.00 411.30,259.00 417.06,259.00 L 422.00 259.00 L 422.00 246.00 L 422.00 233.00 L 410.74 233.00 C401.10,233.00 399.32,233.25 398.39,234.75 C397.79,235.71 392.05,243.25 385.65,251.50 C379.25,259.75 371.76,269.42 369.01,273.00 C366.26,276.58 357.25,288.25 348.98,298.94 C340.72,309.63 334.08,318.73 334.23,319.17 C334.38,319.60 338.53,325.03 343.45,331.23 C362.92,355.76 379.12,376.16 389.89,389.70 C400.82,403.44 401.31,403.91 405.34,404.27 C407.63,404.48 433.01,404.73 461.75,404.83 L 514.00 405.00 L 514.00 384.50 ZM 576.00 392.50 L 576.00 380.00 L 572.00 380.00 L 568.00 380.00 L 568.00 345.62 L 568.00 311.25 L 564.88 310.62 C560.87,309.82 544.66,309.81 542.58,310.61 C541.17,311.15 541.00,316.27 541.00,358.11 L 541.00 405.00 L 558.50 405.00 L 576.00 405.00 L 576.00 392.50 ZM 661.26 397.00 C664.46,392.88 669.50,386.35 672.45,382.50 C675.40,378.65 687.52,362.90 699.40,347.50 C711.27,332.10 720.99,319.27 720.99,318.99 C721.00,318.46 714.91,310.73 675.48,261.25 L 652.97 233.00 L 596.96 233.00 L 540.96 233.00 L 541.23 253.25 L 541.50 273.50 L 554.00 273.50 L 566.50 273.50 L 566.80 266.75 L 567.09 260.00 L 604.30 260.02 L 641.50 260.04 L 665.31 288.59 C681.48,307.98 688.84,317.52 688.23,318.32 C687.74,318.97 677.35,332.89 665.14,349.25 L 642.95 379.00 L 637.98 379.00 L 633.00 379.00 L 633.00 392.03 L 633.00 405.07 L 644.21 404.78 L 655.43 404.50 L 661.26 397.00 ZM 465.56 362.42 L 465.63 358.50 L 500.31 358.24 L 535.00 357.97 L 535.00 344.99 L 535.00 332.00 L 488.00 332.00 L 441.00 332.00 L 441.00 348.83 C441.00,358.09 441.19,365.85 441.42,366.08 C441.65,366.31 447.17,366.46 453.67,366.42 L 465.50 366.34 L 465.56 362.42 ZM 405.00 327.50 L 405.00 321.00 L 398.50 321.00 L 392.00 321.00 L 392.00 326.83 C392.00,330.04 392.30,332.97 392.67,333.33 C393.03,333.70 395.96,334.00 399.17,334.00 L 405.00 334.00 L 405.00 327.50 ZM 420.00 327.50 L 420.00 321.00 L 413.50 321.00 L 407.00 321.00 L 407.00 326.83 C407.00,330.04 407.30,332.97 407.67,333.33 C408.03,333.70 410.96,334.00 414.17,334.00 L 420.00 334.00 L 420.00 327.50 ZM 647.80 326.25 L 648.10 320.00 L 641.55 320.00 L 635.00 320.00 L 635.00 325.83 C635.00,329.04 635.32,331.99 635.71,332.38 C636.10,332.77 638.91,332.96 641.96,332.79 L 647.50 332.50 L 647.80 326.25 ZM 662.80 326.25 L 663.10 320.00 L 656.55 320.00 L 650.00 320.00 L 650.00 326.55 L 650.00 333.10 L 656.25 332.80 L 662.50 332.50 L 662.80 326.25 ZM 514.00 280.00 L 514.00 233.00 L 496.50 233.00 L 479.00 233.00 L 479.00 245.50 L 479.00 258.00 L 483.00 258.00 L 487.00 258.00 L 487.00 292.50 L 487.00 327.00 L 500.50 327.00 L 514.00 327.00 L 514.00 280.00 ZM 404.80 312.25 L 405.10 306.00 L 398.55 306.00 L 392.00 306.00 L 392.00 311.83 C392.00,315.04 392.32,317.99 392.71,318.38 C393.10,318.77 395.91,318.96 398.96,318.79 L 404.50 318.50 L 404.80 312.25 ZM 420.00 312.50 L 420.00 306.00 L 413.50 306.00 L 407.00 306.00 L 407.00 311.83 C407.00,315.04 407.30,317.97 407.67,318.33 C408.03,318.70 410.96,319.00 414.17,319.00 L 420.00 319.00 L 420.00 312.50 ZM 648.00 310.50 L 648.00 304.00 L 641.50 304.00 L 635.00 304.00 L 635.00 310.50 L 635.00 317.00 L 641.50 317.00 L 648.00 317.00 L 648.00 310.50 ZM 663.00 310.50 L 663.00 304.00 L 656.50 304.00 L 650.00 304.00 L 650.00 310.50 L 650.00 317.00 L 656.50 317.00 L 663.00 317.00 L 663.00 310.50 ZM 612.77 287.87 C613.02,272.63 612.90,271.21 611.27,270.87 C610.30,270.67 604.66,270.64 598.75,270.81 L 588.00 271.13 L 588.00 275.06 L 588.00 279.00 L 553.50 279.00 L 519.00 279.00 L 519.00 291.33 C519.00,298.12 519.30,303.97 519.68,304.34 C520.05,304.72 541.09,304.90 566.43,304.76 L 612.50 304.50 L 612.77 287.87 ZM 481.00 291.55 L 481.00 279.10 L 474.75 278.80 L 468.50 278.50 L 468.26 241.00 L 468.03 203.50 L 496.20 180.08 C511.69,167.20 524.86,156.67 525.45,156.67 C526.44,156.67 535.17,163.04 572.49,191.00 L 586.50 201.50 L 587.00 206.50 L 587.50 211.50 L 600.00 211.50 L 612.50 211.50 L 612.78 200.89 L 613.06 190.29 L 605.28 184.32 C601.00,181.04 581.91,166.35 562.85,151.68 C543.79,137.00 527.69,125.00 527.08,125.00 C526.47,125.00 516.47,132.54 504.86,141.75 C451.83,183.83 442.55,191.53 441.88,194.00 C441.51,195.38 441.15,220.69 441.10,250.25 L 441.00 304.00 L 461.00 304.00 L 481.00 304.00 L 481.00 291.55 ZM 526.00 207.50 L 526.00 201.00 L 519.50 201.00 L 513.00 201.00 L 513.00 206.83 C513.00,210.04 513.30,212.97 513.67,213.33 C514.03,213.70 516.96,214.00 520.17,214.00 L 526.00 214.00 L 526.00 207.50 ZM 540.80 207.25 L 541.10 201.00 L 534.55 201.00 L 528.00 201.00 L 528.00 207.55 L 528.00 214.10 L 534.25 213.80 L 540.50 213.50 L 540.80 207.25 ZM 525.80 192.25 L 526.10 186.00 L 519.55 186.00 L 513.00 186.00 L 513.00 191.83 C513.00,195.04 513.19,197.85 513.42,198.08 C513.65,198.31 516.46,198.50 519.67,198.50 L 525.50 198.50 L 525.80 192.25 ZM 540.80 192.08 L 541.10 186.00 L 534.55 186.00 L 528.00 186.00 L 528.00 191.83 C528.00,195.04 528.23,197.89 528.51,198.17 C528.78,198.45 531.60,198.56 534.76,198.42 L 540.50 198.15 L 540.80 192.08 ZM 192.96 822.75 C188.16,820.33 184.00,813.95 184.00,809.00 C184.00,807.58 185.01,804.42 186.25,801.96 C189.28,795.95 195.94,792.46 202.51,793.45 C210.03,794.58 216.00,801.16 216.00,808.33 C216.00,815.56 211.32,822.19 204.92,824.02 C199.91,825.46 197.91,825.25 192.96,822.75 ZM 339.00 823.93 C332.78,821.32 327.42,812.95 328.34,807.29 C329.79,798.35 337.95,792.17 346.61,793.46 C360.80,795.59 364.79,813.49 353.00,822.15 C349.94,824.40 342.39,825.35 339.00,823.93 ZM 490.53 822.72 C476.51,814.78 480.71,794.70 496.68,793.30 C506.18,792.47 513.01,799.00 512.99,808.90 C512.99,815.55 510.89,819.30 505.30,822.69 C500.51,825.59 495.62,825.60 490.53,822.72 ZM 529.00 804.00 L 529.00 793.00 L 534.07 793.00 C542.35,793.00 546.94,796.63 546.98,803.20 C547.02,811.04 542.70,815.00 534.10,815.00 L 529.00 815.00 L 529.00 804.00 ZM 575.67 824.33 C575.30,823.97 575.00,819.02 575.00,813.33 L 575.00 803.00 L 580.25 803.01 C587.04,803.03 590.06,804.61 592.38,809.36 C596.28,817.33 590.67,824.99 580.92,825.00 C578.40,825.00 576.03,824.70 575.67,824.33 ZM 575.38 797.56 C573.97,793.89 575.38,792.50 580.50,792.50 C584.49,792.50 585.54,792.85 585.82,794.30 C586.01,795.29 585.62,796.75 584.96,797.55 C583.36,799.47 576.12,799.48 575.38,797.56 ZM 720.00 804.00 L 720.00 793.00 L 725.05 793.00 C733.80,793.00 738.00,796.77 738.00,804.65 C738.00,807.35 737.19,809.01 734.60,811.60 C731.54,814.66 730.64,815.00 725.60,815.00 L 720.00 815.00 L 720.00 804.00 ZM 441.60 672.26 C441.27,671.94 441.00,669.72 441.00,667.33 C441.00,663.67 441.31,663.00 443.00,663.00 C444.70,663.00 445.00,663.67 445.00,667.39 C445.00,671.48 443.28,673.94 441.60,672.26 ZM 461.60 671.26 C461.27,670.94 461.00,668.94 461.00,666.83 C461.00,663.72 461.36,663.00 462.92,663.00 C465.17,663.00 465.76,664.30 465.20,668.09 C464.81,670.76 462.83,672.50 461.60,671.26 ZM 482.11 682.63 C481.33,681.70 481.02,678.12 481.21,672.35 C481.48,663.99 481.63,663.48 483.79,663.18 C486.05,662.85 486.07,662.93 485.79,673.09 C485.50,683.31 484.60,685.64 482.11,682.63 ZM 503.66 672.32 C503.30,671.96 503.00,669.72 503.00,667.33 C503.00,663.67 503.31,663.00 505.00,663.00 C506.66,663.00 507.00,663.67 507.00,666.88 C507.00,670.57 505.06,673.73 503.66,672.32 ZM 542.69 671.35 C542.31,670.98 542.00,668.94 542.00,666.83 C542.00,663.63 542.34,663.00 544.06,663.00 C545.85,663.00 546.08,663.53 545.81,667.17 C545.52,671.12 544.21,672.87 542.69,671.35 ZM 512.29 603.75 C512.57,602.51 514.07,593.24 515.61,583.14 C517.34,571.82 518.70,565.49 519.15,566.64 C519.76,568.20 525.03,602.93 525.01,605.25 C525.00,605.66 522.03,606.00 518.39,606.00 C512.05,606.00 511.80,605.91 512.29,603.75 ZM 660.97 585.50 C660.95,585.22 660.92,579.26 660.91,572.25 L 660.89 559.50 L 666.06 559.55 C673.16,559.62 674.00,560.99 674.00,572.52 C674.00,580.77 673.78,581.86 671.69,583.83 C670.07,585.34 668.11,586.00 665.19,586.00 C662.88,586.00 660.98,585.78 660.97,585.50 Z" fill="rgb(254,254,254)"/>
</g>
</svg>